<svg xmlns="http://www.w3.org/2000/svg" width="97.677" height="18.161" viewBox="0 0 97.677 18.161"><defs><style>.a{fill:#fefefe;}</style></defs><g transform="translate(-636.896 -301.504)"><path class="a" d="M734.573,314.312a6.084,6.084,0,0,0-.2.9,5.311,5.311,0,0,1-3.485,3.659,8.969,8.969,0,0,1-3.177.535c-2.09.012-4.18,0-6.27.01-.281,0-.349-.084-.345-.354.014-1.184.012-2.368,0-3.551,0-.244.062-.316.312-.315,2.132.01,4.263.005,6.395.007a3,3,0,0,0,1.278-.221,1.622,1.622,0,0,0,.991-1.565q.03-2.865,0-5.732a1.688,1.688,0,0,0-1.715-1.708c-.881-.053-1.767-.017-2.651-.027-.249,0-.184.174-.185.3q0,2.461,0,4.922v1.934c-.275-.242-.5-.435-.717-.633q-1.749-1.573-3.5-3.147a.531.531,0,0,1-.193-.431q.008-3.411,0-6.822c0-.229.057-.3.3-.3,2.277.012,4.555-.024,6.831.024a7.042,7.042,0,0,1,4.295,1.448,5.208,5.208,0,0,1,1.979,3.547c.011.079-.019.17.065.228Z"/><path class="a" d="M720,319.406h-.374c-1.6,0-3.2-.005-4.8.005a.609.609,0,0,1-.568-.28c-1.215-1.684-2.445-3.357-3.67-5.033a.912.912,0,0,0-.929-.282c-.154.06-.092.194-.092.3q-.006,2.445,0,4.89c0,.4,0,.4-.4.4-1.258,0-2.517-.006-3.775.006-.262,0-.33-.08-.33-.336q.011-8.488,0-16.977c0-.239.055-.317.308-.316,2.329.011,4.659-.009,6.988.012a7.109,7.109,0,0,1,4.131,1.172,5.063,5.063,0,0,1,2.1,3.608,7.891,7.891,0,0,1-.4,3.951,4.479,4.479,0,0,1-2.635,2.7c-.325.129-.323.127-.1.4l4.361,5.487c.057.072.106.151.2.287m-10.439-11.45c0,.571.008,1.142,0,1.713,0,.206.04.294.271.29.832-.014,1.664,0,2.495-.011a2,2,0,0,0,.024-3.993c-.841-.018-1.684,0-2.526-.012-.211,0-.267.07-.263.269.009.581,0,1.163,0,1.744"/><path class="a" d="M702.694,310.579v2.96a5.456,5.456,0,0,1-3.535,5.3,8.993,8.993,0,0,1-7.527-.009,5.5,5.5,0,0,1-3.46-4.291,6.446,6.446,0,0,1-.086-1.084c0-1.859.028-3.718-.005-5.576a5.7,5.7,0,0,1,4.145-5.811,8.916,8.916,0,0,1,7.876.771,5.225,5.225,0,0,1,2.589,4.652c.008,1.028,0,2.056,0,3.083Zm-10.139-.011c0,.986.008,1.971,0,2.957a1.552,1.552,0,0,0,.854,1.481,4.024,4.024,0,0,0,3.824.071,1.724,1.724,0,0,0,1.02-1.706c-.016-1.9-.007-3.8-.005-5.7a1.657,1.657,0,0,0-.891-1.566,3.915,3.915,0,0,0-3.843-.053,1.675,1.675,0,0,0-.96,1.618c.016.965,0,1.93,0,2.895"/><path class="a" d="M641.322,313.105c-.272-.237-.489-.421-.7-.612-1.158-1.043-2.313-2.09-3.476-3.128a.648.648,0,0,1-.235-.538q.012-3.35,0-6.7c0-.258.041-.359.335-.357,2.267.016,4.535-.023,6.8.026a7,7,0,0,1,4.317,1.475,4.878,4.878,0,0,1,1.938,3.788c.066,2.377.1,4.76-.006,7.134a5.036,5.036,0,0,1-3.427,4.6,8.705,8.705,0,0,1-3.35.612c-2.1.014-4.2,0-6.3.009-.237,0-.322-.05-.319-.306.015-1.205.013-2.41,0-3.615,0-.234.064-.3.3-.3q3.168.012,6.335,0a4.061,4.061,0,0,0,.837-.06,1.709,1.709,0,0,0,1.51-1.778q.027-2.82,0-5.64a1.716,1.716,0,0,0-1.777-1.752c-.851-.038-1.705-.009-2.558-.024-.257,0-.218.156-.218.308v6.854Z"/><path class="a" d="M665.85,301.525a7.126,7.126,0,0,1,5.667,2.577c.156.179.152.26-.038.4q-1.258.945-2.495,1.918a.23.23,0,0,1-.365-.02,4.465,4.465,0,0,0-2.472-1.224,2.637,2.637,0,0,0-1.666.247,1.313,1.313,0,0,0-.094,2.331,6.049,6.049,0,0,0,2.052.693,10.247,10.247,0,0,1,3.477,1.22,4.558,4.558,0,0,1,2.189,3.74,4.925,4.925,0,0,1-1.653,4.333,7.315,7.315,0,0,1-2.835,1.513,7.525,7.525,0,0,1-8.306-2.646c-.115-.138-.138-.217.009-.352q1.253-1.147,2.485-2.316c.145-.137.2-.109.339.023a4.782,4.782,0,0,0,4.376,1.409,1.758,1.758,0,0,0,.6-.242,1.087,1.087,0,0,0,.087-1.917,4.314,4.314,0,0,0-1.781-.71,12.055,12.055,0,0,1-2.675-.69,5.286,5.286,0,0,1-3.32-3.845,4.988,4.988,0,0,1,3.2-5.873,7.875,7.875,0,0,1,3.211-.572"/><path class="a" d="M673.593,310.582c0-.986,0-1.973,0-2.959a5.45,5.45,0,0,1,3.267-5.232,7.778,7.778,0,0,1,6.051-.48,6.448,6.448,0,0,1,3.8,3.44c.088.175.053.251-.126.322q-1.607.637-3.205,1.295c-.165.068-.228.017-.321-.112a3.2,3.2,0,0,0-4.029-.852,1.788,1.788,0,0,0-.981,1.65c0,1.941-.008,3.883,0,5.825a1.913,1.913,0,0,0,1.633,1.884,2.952,2.952,0,0,0,2.572-.474,2.033,2.033,0,0,0,.639-.792c.075-.163.131-.214.318-.126q1.706.8,3.424,1.575c.205.092.234.177.124.367a6.924,6.924,0,0,1-5.391,3.632,7.575,7.575,0,0,1-5.491-1.366,5.262,5.262,0,0,1-2.271-4.327c-.03-1.089-.006-2.18-.006-3.27Z"/><path class="a" d="M657.188,310.572c0,2.814-.005,5.629.007,8.443,0,.289-.079.361-.362.358-1.268-.016-2.537-.012-3.806,0-.215,0-.282-.056-.282-.277q.009-8.521,0-17.042c0-.221.065-.279.281-.278,1.28.01,2.559.012,3.838,0,.256,0,.331.062.33.325-.01,2.824-.006,5.649-.006,8.474"/></g></svg>