<svg xmlns="http://www.w3.org/2000/svg" width="58.21" height="65.784" viewBox="0 0 58.21 65.784"><defs><style>.a{fill:#7289d9;}.b{fill:#fefefe;}</style></defs><g transform="translate(-656.93 -224.521)"><path class="a" d="M715.139,290.3c-5.3-4.424-10.327-8.995-15.392-13.576q.408,1.414.816,2.829c.252.867.491,1.738.766,2.6.125.389.011.454-.363.453q-6.4-.018-12.8-.008-12.148,0-24.3,0a6.767,6.767,0,0,1-6.522-4.488,6.432,6.432,0,0,1-.412-2.242q0-22.307.008-44.612a6.864,6.864,0,0,1,6.936-6.734c13.185.048,26.369.019,39.554.019,1.6,0,3.2-.006,4.806,0a6.817,6.817,0,0,1,6.9,6.927q0,29.141,0,58.282v.555M673.66,261.177c1.119.552,2.2,1.174,3.366,1.638a24,24,0,0,0,16.56.767,26.6,26.6,0,0,0,5.229-2.309l.079.086a7.391,7.391,0,0,1-2.369,2.077,13.776,13.776,0,0,1-3.241,1.43c.694.842,1.357,1.641,2.014,2.446.143.177.326.163.519.163a10.983,10.983,0,0,0,2.071-.231,12.114,12.114,0,0,0,7.419-4.3,1.263,1.263,0,0,0,.309-.9c-.071-1.561-.166-3.118-.385-4.669a45.136,45.136,0,0,0-4.108-13.441,2.374,2.374,0,0,0-.831-.971,18.36,18.36,0,0,0-5.3-2.513,14.422,14.422,0,0,0-3.178-.552.575.575,0,0,0-.631.43c-.067.276.288.228.45.28a25.4,25.4,0,0,1,6.44,3.044,1.644,1.644,0,0,1,.614.571c-.928-.393-1.743-.77-2.581-1.089a27.029,27.029,0,0,0-11.554-1.786,30.839,30.839,0,0,0-6.974,1.185,45.635,45.635,0,0,0-4.322,1.677c-.026-.028-.051-.057-.076-.085a18.943,18.943,0,0,1,4.7-2.66c1.068-.46,2.184-.79,3.295-1.172-.237-.6-.719-.4-1.089-.354a17.451,17.451,0,0,0-8.172,3.18,1.375,1.375,0,0,0-.471.539,43.009,43.009,0,0,0-4.61,18.437,1.315,1.315,0,0,0,.306.906,12.694,12.694,0,0,0,9.542,4.547.486.486,0,0,0,.448-.2c.6-.744,1.2-1.486,1.817-2.22.194-.232.16-.332-.128-.425a11.267,11.267,0,0,1-2.062-.874,8.826,8.826,0,0,1-3.13-2.608l.037-.038"/><path class="b" d="M673.623,261.215a8.826,8.826,0,0,0,3.13,2.608,11.341,11.341,0,0,0,2.062.875c.288.093.322.192.128.424-.613.734-1.215,1.476-1.816,2.22a.491.491,0,0,1-.449.2A12.7,12.7,0,0,1,667.136,263a1.317,1.317,0,0,1-.306-.907,43,43,0,0,1,4.61-18.436,1.375,1.375,0,0,1,.471-.539,17.452,17.452,0,0,1,8.172-3.181c.37-.041.852-.24,1.089.355-1.111.381-2.227.712-3.295,1.171a19,19,0,0,0-4.7,2.661l-.127.124c.085.076.143.016.2-.039a45.375,45.375,0,0,1,4.322-1.678,30.9,30.9,0,0,1,6.974-1.185,27.029,27.029,0,0,1,11.554,1.786c.838.32,1.653.7,2.581,1.09a1.628,1.628,0,0,0-.614-.571,25.367,25.367,0,0,0-6.44-3.044c-.162-.053-.517,0-.45-.281a.575.575,0,0,1,.631-.43,14.48,14.48,0,0,1,3.178.552,18.363,18.363,0,0,1,5.3,2.514,2.365,2.365,0,0,1,.831.97,45.136,45.136,0,0,1,4.108,13.441c.219,1.551.315,3.108.385,4.67a1.266,1.266,0,0,1-.309.9,12.118,12.118,0,0,1-7.419,4.3,10.9,10.9,0,0,1-2.071.231c-.193,0-.376.014-.519-.162-.657-.8-1.32-1.6-2.014-2.447a13.736,13.736,0,0,0,3.241-1.43,7.38,7.38,0,0,0,2.369-2.077.2.2,0,0,0,.151-.166c.032-.018.112-.017.03-.079-.012.025-.024.049-.035.074a.186.186,0,0,0-.225.086,26.6,26.6,0,0,1-5.229,2.308,23.984,23.984,0,0,1-16.56-.767c-1.164-.464-2.247-1.085-3.366-1.638-.021-.021-.058-.062-.062-.059-.068.049-.017.072.025.1m9.746-5.441c0-.157.009-.314,0-.469a3.5,3.5,0,0,0-2.378-3.012,3.258,3.258,0,0,0-3.553,1.109,3.881,3.881,0,0,0-.046,4.7,3.119,3.119,0,0,0,2.332,1.316,3.411,3.411,0,0,0,3.647-3.641m5.4.068a3.984,3.984,0,0,0,.028.514,3.446,3.446,0,0,0,2.212,2.86,3.08,3.08,0,0,0,3.379-.686,3.9,3.9,0,0,0,.249-5.209,3.234,3.234,0,0,0-4.407-.553,3.558,3.558,0,0,0-1.461,3.074m10.036-11.6c-.011-.012-.021-.032-.032-.033s-.025.017-.038.027c.011.012.023.031.035.032s.025-.018.035-.026"/><path class="a" d="M683.368,255.773a3.411,3.411,0,0,1-3.647,3.641,3.119,3.119,0,0,1-2.332-1.316,3.882,3.882,0,0,1,.046-4.7,3.26,3.26,0,0,1,3.554-1.109,3.5,3.5,0,0,1,2.378,3.012c.01.156,0,.313,0,.469"/><path class="a" d="M688.772,255.842a3.559,3.559,0,0,1,1.462-3.074,3.233,3.233,0,0,1,4.406.553,3.9,3.9,0,0,1-.249,5.209,3.079,3.079,0,0,1-3.378.686,3.448,3.448,0,0,1-2.213-2.86,4.4,4.4,0,0,1-.028-.514"/><path class="a" d="M673.252,244.205c-.06.055-.118.115-.2.039l.127-.124.076.085"/><path class="a" d="M698.815,261.273a.187.187,0,0,1,.224-.086l.005,0a.2.2,0,0,1-.151.166l-.078-.085"/><path class="a" d="M698.809,244.238c-.01.008-.023.026-.035.026s-.024-.02-.035-.032c.013-.01.026-.028.038-.027s.021.021.032.033"/><path class="a" d="M673.623,261.215c-.042-.025-.093-.048-.025-.1,0,0,.04.039.062.06l-.037.037"/><path class="a" d="M699.039,261.187c.012-.024.023-.049.035-.073.082.061,0,.06-.03.078Z"/></g></svg>