<svg xmlns="http://www.w3.org/2000/svg" width="58.37" height="58.106" viewBox="0 0 58.37 58.106"><defs><style>.a{fill:#31a5da;}.b{fill:#f9fcfd;}.c{fill:#c7dfee;}</style></defs><g transform="translate(-370.674 -224.784)"><path class="a" d="M370.674,253.828a29.185,29.185,0,1,1,29.167,29.062,29.232,29.232,0,0,1-29.167-29.062m30.136,8.383c.4.261.819.5,1.2.788,2.024,1.521,4.013,3.09,6.066,4.571a1.894,1.894,0,0,0,3.194-1.183c1.878-8.3,3.652-16.616,5.067-25.006.255-1.509-.355-2.086-1.832-1.651-1.505.443-2.975,1.01-4.452,1.546-8.538,3.1-17.021,6.333-25.326,10.016-.675.3-1.468.563-1.4,1.5.057.842.771,1.1,1.446,1.322,2.239.733,4.482,1.452,6.724,2.177a5.4,5.4,0,0,1,1.1,2.6c.721,2.183,1.352,4.4,2.1,6.572.456,1.336,1.032,1.525,1.966.686,1.418-1.275,2.77-2.624,4.15-3.941"/><path class="b" d="M391.493,256.3c-2.242-.725-4.485-1.444-6.724-2.178-.675-.22-1.389-.48-1.446-1.322-.064-.941.729-1.205,1.4-1.5,8.305-3.684,16.788-6.921,25.326-10.017,1.477-.535,2.947-1.1,4.452-1.545,1.477-.435,2.087.141,1.832,1.651-1.415,8.39-3.189,16.709-5.068,25a1.893,1.893,0,0,1-3.193,1.184c-2.053-1.481-4.042-3.05-6.066-4.571-.381-.287-.8-.527-1.2-.788-.893-1.283-2.3-1.983-3.475-2.927-.821-.659-.72-.985-.063-1.569q4.781-4.239,9.534-8.508c1.2-1.074,2.378-2.17,3.561-3.262.229-.212.468-.488.267-.8-.22-.335-.521-.16-.8.013-4.488,2.834-8.965,5.684-13.475,8.48-1.57.974-2.966,2.288-4.871,2.653"/><path class="c" d="M391.493,256.3c1.9-.365,3.3-1.679,4.871-2.653,4.51-2.8,8.987-5.646,13.475-8.48.274-.173.575-.348.8-.013.2.307-.038.583-.267.8-1.183,1.092-2.362,2.188-3.561,3.262q-4.758,4.265-9.534,8.508c-.657.584-.758.91.063,1.569,1.178.944,2.582,1.644,3.475,2.927-1.38,1.317-2.732,2.666-4.15,3.94-.934.839-1.51.65-1.966-.685-.744-2.175-1.375-4.389-2.1-6.573a5.4,5.4,0,0,0-1.1-2.6"/></g></svg>