<svg xmlns="http://www.w3.org/2000/svg" width="58.37" height="58.105" viewBox="0 0 58.37 58.105"><defs><style>.a{fill:#fff;}</style></defs><g transform="translate(-943.592 -221.89)"><path class="a" d="M943.592,250.934a29.185,29.185,0,1,1,29.167,29.061,29.231,29.231,0,0,1-29.167-29.061"/><path d="M951.1,251.458a11.718,11.718,0,1,1,23.434.046,11.718,11.718,0,1,1-23.434-.046"/><path d="M987.355,251.472a15.192,15.192,0,0,1-2.279,8.866c-2.006,2.965-4.775,3-6.921.144-3.245-4.323-3.248-13.706-.007-18.051,2.074-2.78,4.778-2.794,6.8.021,1.935,2.69,2.412,5.8,2.4,9.02"/><path d="M990.6,241.55c2.711,2.616,2.842,16.456.188,19.75-2.832-2.048-2.97-16.609-.188-19.75"/></g></svg>