<svg xmlns="http://www.w3.org/2000/svg" width="58.37" height="58.105" viewBox="0 0 58.37 58.105"><defs><style>.a{fill:#35cbfd;}.b{fill:#fff;}</style></defs><g transform="translate(-1230.101 -223.392)"><path class="a" d="M1230.1,252.436a29.185,29.185,0,1,1,29.167,29.061,29.23,29.23,0,0,1-29.167-29.061"/><path class="b" d="M1240.824,258.773c4.926,3.1,9.6,2.914,14.055-.907-1.11-.187-2.218-.327-2.6-1.606-.167-.559.1-.969,1.2-1.958a4.559,4.559,0,0,1-3.7-1.315c-1.03-1.06-1.2-1.347.515-2.046.249-.1.55-.044.81-.293a8.736,8.736,0,0,1-2.346-1.192,4.7,4.7,0,0,1-1.484-2.267c-.138-.419.036-.53.371-.587.532-.09,1.065-.174,1.723-.281a6.969,6.969,0,0,1-2.536-2.423,4.371,4.371,0,0,1-.6-1.895c-.03-.455.063-.655.579-.459,2.6.987,5.162,2.06,7.668,3.265a15.315,15.315,0,0,1,4.687,3.114c.383.406.484.17.625-.184a30.536,30.536,0,0,1,2.92-5.931,11.846,11.846,0,0,1,3.006-3.121c.32.148-.062.39.179.554a6.557,6.557,0,0,1,2.43-.9c.078.4-.229.569-.381.863a6.214,6.214,0,0,0,1.294-.215c.358-.031.813-.191.969.28s-.258.657-.608.787c-.693.257-1.4.478-2.324.789a15.686,15.686,0,0,1,1.608.259,8.946,8.946,0,0,1,6.413,6.624,1.249,1.249,0,0,0,1.163,1.076,8.884,8.884,0,0,0,3.714-.3,2.785,2.785,0,0,1-1.638,1.6,10.432,10.432,0,0,1-2.312.609,10.659,10.659,0,0,0,4.095.469,4.554,4.554,0,0,1-2.28,1.457,5.63,5.63,0,0,1-1.9.311.55.55,0,0,0-.638.461,16.285,16.285,0,0,1-8.813,10.156,21.48,21.48,0,0,1-18.152,1.04,17.746,17.746,0,0,1-7.713-5.832"/></g></svg>