<svg xmlns="http://www.w3.org/2000/svg" width="113.884" height="24.82" viewBox="0 0 113.884 24.82"><defs><style>.a{fill:#f9f9f9;}</style></defs><g transform="translate(-917.151 -294.184)"><path class="a" d="M951.939,300.865s-6.631-.324-7.482,8.116c0,0-.8,8.339,5.9,9.879,0,0,7.129,1.736,8.516-6.866l-.3-.106s-1.679,3.824-5.361,3.269c0,0-4.8-.659-4.624-6.709h10.433s.385-7.451-7.083-7.583m2.784,6.666H948.7c.287-3.307,1.362-5.649,3.3-5.649a2.149,2.149,0,0,1,1.554.592c.839.814,1.233,2.515,1.172,5.057"/><path class="a" d="M975.808,315.833V294.184l-7.749,2.281v.28a3.019,3.019,0,0,1,2.263.446,1.842,1.842,0,0,1,.49,1.429v2.97a5.007,5.007,0,0,0-2.775-.725,7.5,7.5,0,0,0-5.754,2.651,10.589,10.589,0,0,0-2.349,7.044c0,5.045,2.483,8.434,6.179,8.434a4.889,4.889,0,0,0,4.7-3.183V318.5h6.953v-.278c-1.275-.3-1.957-.761-1.957-2.386m-5-.8a2.041,2.041,0,0,1-2.012,1.258,2.909,2.909,0,0,1-2.453-1.85,11.622,11.622,0,0,1-1.019-5.236c0-4.466,1.389-7.352,3.538-7.352a2.019,2.019,0,0,1,1.946,1.226Z"/><path class="a" d="M981.614,299.908a2.78,2.78,0,0,0,0-5.56,2.78,2.78,0,1,0,0,5.56"/><path class="a" d="M1029.078,316.065V305.916c0-3.163-1.777-5.052-4.753-5.052a4.887,4.887,0,0,0-4.7,3.208c-.559-2.07-2.169-3.208-4.549-3.208a4.522,4.522,0,0,0-4.433,2.968v-2.916l-6.954,2v.273c1.487.132,1.957.669,1.957,2.38V318.5h6.489v-.278c-1.1-.26-1.492-.741-1.492-1.955V304.632a2.188,2.188,0,0,1,2.045-1.49c1.445,0,2.178,1,2.178,2.973V318.5h6.489v-.278c-1.1-.26-1.493-.741-1.493-1.955V305.916a6.666,6.666,0,0,0-.1-1.155,2.321,2.321,0,0,1,2.144-1.619c1.465,0,2.178.972,2.178,2.973V318.5h6.953v-.278c-1.384-.32-1.957-.929-1.957-2.154"/><path class="a" d="M984.283,315.833h-.006V300.916l-6.953,2v.272c1.505.134,1.957.656,1.957,2.414v12.9h6.959v-.278c-1.276-.3-1.957-.761-1.957-2.386"/><path class="a" d="M942.684,315.946V297.79c0-1.549.687-1.986,1.962-2.273v-.265h-6.987L931.171,310.5l-6.488-15.249h-7.53v.265c1.276.287,1.957.724,1.957,2.273v18.156c0,1.548-.684,1.985-1.959,2.273v.278h5.106v-.278c-1.275-.288-1.956-.725-1.956-2.273V298.841l8.336,19.656h.473l8.6-20.2v17.653c0,1.548-.684,1.985-1.96,2.273v.278h8.9v-.278c-1.275-.288-1.962-.725-1.962-2.273"/><path class="a" d="M1002.1,315.833V300.916l-6.622,2v.272c1.23.129,1.625.681,1.625,2.447v9.4a2.373,2.373,0,0,1-2.23,1.4c-1.475,0-2.223-1-2.223-2.973l0-12.541-6.953,2v.272c1.535.134,2,.656,2,2.414l0,8.34c0,5.37,4.885,5.052,4.885,5.052a4.78,4.78,0,0,0,4.524-3.163L997.1,318.5h6.959v-.278c-1.276-.3-1.957-.761-1.957-2.386"/></g></svg>