<svg xmlns="http://www.w3.org/2000/svg" width="742" height="51" viewBox="0 0 742 51"><defs><style>.a{fill:none;stroke:#33a4d8;}.b{fill:#fcfcfc;}.c{fill:#fff;}.d{fill:#29a5dc;}</style></defs><g transform="translate(-590 -943)"><path class="a" d="M11,0H730a11,11,0,0,1,11,11V39a11,11,0,0,1-11,11H11A11,11,0,0,1,0,39V11A11,11,0,0,1,11,0Z" transform="translate(590.5 943.5)"/><path class="b" d="M238,47.051H13a8.024,8.024,0,0,1-8-8v-27a8.024,8.024,0,0,1,8-8H238a8.024,8.024,0,0,1,8,8v27a8.024,8.024,0,0,1-8,8" transform="translate(590 942.949)"/><path class="c" d="M6.783,30C7.833,23.459,9.771,11.024,10.3,6.744h.04C10.74,10.459,12.8,23.5,13.768,30h2.3l4.2-26.97H18.209c-.969,6.944-2.867,19.46-3.149,23.619h-.121c-.2-4.078-2.5-16.957-3.513-23.619H9.286C8.277,9.772,5.975,23.379,5.733,26.77h-.04C5.451,23.1,3.755,10.1,2.786,3.03H.686L4.482,30ZM22.933,3.03V30h1.978V3.03ZM31.573,30h1.978V4.847h4.32V3.03h-10.7V4.847h4.4Zm8.358,0h1.978V16.394h6.42V30h1.978V3.03H48.328V14.577h-6.42V3.03H39.93Zm14.535,0h4c5.895,0,6.5-4.118,6.5-8.277V10.863c0-3.8-.283-7.833-6.177-7.833h-4.32ZM56.443,4.806h1.9c3.957,0,4.6,2.14,4.6,5.693V22.288c0,4.037-1.009,5.935-4.643,5.935H56.443ZM68.677,30h1.978V17.04h2.18c2.826,0,3.391,1.171,3.391,4.8A68.234,68.234,0,0,0,76.51,30h1.938a67.773,67.773,0,0,1-.283-8.358c0-3.553-.727-4.966-2.5-5.531,1.736-.565,2.745-2.382,2.745-5.693V9.046c0-4.2-1.7-6.016-5.733-6.016h-4ZM70.655,4.766h1.938c2.947,0,3.8,1.615,3.8,4.36V10.5c0,2.867-.565,4.8-3.391,4.8H70.655Zm18.33,15.665L90.6,30h2.1L88.016,3.03H85.15L80.668,30h1.978l1.534-9.569Zm-4.522-1.817c.848-5.572,1.938-11.87,2.019-13.848h.081c.242,2.221.969,6.985,2.14,13.848ZM99,30c1.05-6.541,2.988-18.976,3.513-23.256h.04c.4,3.714,2.463,16.755,3.432,23.256h2.3l4.2-26.97h-2.059c-.969,6.944-2.867,19.46-3.149,23.619h-.121c-.2-4.078-2.5-16.957-3.513-23.619H101.5c-1.009,6.743-3.311,20.349-3.553,23.74h-.04C97.666,23.1,95.97,10.1,95,3.03H92.9L96.7,30Z" transform="translate(1148.752 952.231) rotate(-0.133)"/><path class="c" d="M2.1,30H6.137c4.522,0,5.935-2.3,5.935-7.066V20.956c0-3.472-1.453-4.966-3.068-5.41,1.453-.525,2.5-1.7,2.5-5.491V8.723c0-3.472-1.413-5.693-5.289-5.693H2.1ZM4.078,14.738V4.766H6.056C8.6,4.766,9.569,6.219,9.569,8.8v1.332c0,3.432-.767,4.6-3.23,4.6Zm0,1.736h2.18c2.544,0,3.836,1.373,3.836,4.522v1.9c0,3.755-.807,5.37-4.037,5.37H4.078ZM15.221,3.03V24.307c0,4.078,1.776,6.016,5.128,6.016,3.391,0,5.249-1.978,5.249-6.1V3.03H23.579V24.348c0,2.584-.848,4.159-3.19,4.159-2.3,0-3.19-1.817-3.19-4.2V3.03ZM34.52,30V19.7a2.288,2.288,0,0,1,.081-.646L39.527,3.03h-2.1c-1.413,4.926-3.351,11.547-3.836,13.727h-.04c-.484-2.14-2.342-8.519-3.876-13.727h-2.14l4.885,15.948a1.236,1.236,0,0,1,.121.606V30Z" transform="translate(941 951.97)"/><path class="d" d="M1.271,22.208v1.575c0,3.553,1.211,6.581,5.935,6.581,4.8,0,6.056-3.553,6.056-7.348,0-4.482-1.211-6.177-5.128-9.084-2.422-1.776-2.826-2.745-2.826-4.885,0-1.938.4-3.311,1.978-3.311S9.225,7.027,9.225,9.046V10.3h3.593V8.965c0-3.149-.929-6.339-5.491-6.339-4.6,0-5.652,3.432-5.652,6.944,0,3.957,1.534,5.41,4.4,7.671,2.907,2.261,3.553,3.311,3.553,6.3,0,2.261-.565,3.755-2.342,3.755-1.7,0-2.422-1.252-2.422-3.472V22.208ZM21.9,30c.888-6.016,2.261-14.575,2.826-19.9h.081c.525,5.087,1.857,13.727,2.665,19.9h3.755L35.266,3.03H31.592c-.686,6.3-1.776,15.665-2.1,20.672h-.081c-.444-5.491-1.857-14.414-2.705-20.672H23.114c-.807,6.1-2.261,15.706-2.745,20.833h-.081c-.2-4.724-1.252-14.7-1.978-20.833H14.473L18.188,30Zm22.287-7.792L45.4,30h3.8L44.633,3.03H39.506L35.1,30h3.674l1.09-7.792Zm-3.836-3.351C40.959,14.5,41.847,8.6,41.969,6.421h.121c.283,2.826.929,7.308,1.655,12.435ZM51.3,30h3.634V18.574h1.7c5.006,0,6.46-2.988,6.46-7.267V9.692c0-4.6-2.059-6.662-6.258-6.662H51.3ZM54.929,6.058h1.655c2.5,0,2.907,1.736,2.907,3.8v1.373c0,2.705-.444,4.36-3.23,4.36H54.929ZM71.967,11.67v6.864h-6.46v2.745h6.46v6.944h2.826V21.279h6.42V18.534h-6.42V11.67ZM84.725,30h5.451c4.643,0,6.42-2.382,6.42-6.985V21c0-3.836-1.7-4.966-3.028-5.41,1.252-.525,2.5-1.655,2.5-5.451V9.046c0-3.836-1.7-6.016-6.177-6.016H84.725Zm3.513-15.827V6.058h1.453c2.14,0,2.947,1.009,2.947,3.311V10.5c0,2.867-.686,3.674-3.068,3.674Zm0,2.988H89.57c2.624,0,3.472,1.171,3.472,3.916v1.857c0,2.867-.686,4.078-3.27,4.078H88.238ZM99.5,30h3.634V17.726h1.252c2.5,0,2.988.848,2.988,4.2A58.369,58.369,0,0,0,107.658,30h3.472a76.4,76.4,0,0,1-.242-8.317c0-3.634-.848-4.8-2.5-5.531,1.252-.444,2.745-1.7,2.745-5.652V9.409c0-4.683-2.221-6.379-6.3-6.379H99.5Zm3.634-23.942h1.332c2.5,0,3.068,1.332,3.068,3.593V10.7c0,2.907-.767,4-3.109,4h-1.292ZM114.36,3.03V30h3.634V3.03ZM121.789,30h5.329c6.258,0,6.944-4.441,6.944-8.559v-10.5c0-4.683-1.09-7.913-6.864-7.913h-5.41Zm3.634-23.861h1.453c3.028,0,3.513,1.736,3.513,4.482V22.006c0,3.109-.565,4.885-3.513,4.885h-1.453ZM149,15.061h-6.258V18.17h2.624v4.118c0,3.028-.4,4.885-2.5,4.885-1.7,0-2.342-1.373-2.342-3.755V9.57c0-2.5.767-3.634,2.422-3.634,2.14,0,2.382,1.857,2.382,3.513v.929h3.593V9.57c0-3.109-.686-6.9-5.975-6.9-4.36,0-6.137,2.988-6.137,7.429v13c0,4.441,1.292,7.267,5.128,7.267a3.928,3.928,0,0,0,4.037-2.5c.04.565.121,1.7.2,2.14H149Zm13.081-1.009h-5.975V6.381h6.3V3.03h-9.932V30h10.013l.444-3.311h-6.823V17.363h5.975Z" transform="translate(631.489 952.374)"/></g></svg>