<svg xmlns="http://www.w3.org/2000/svg" width="12.302" height="25.033" viewBox="0 0 12.302 25.033"><defs><style>.a{fill:#fff;}</style></defs><path class="a" d="M92.627,17.586a5.755,5.755,0,0,1,1.559-4.051c1.039-1.123,3.108-1.436,4.592-1.436s3.553.313,4.592,1.436a5.75,5.75,0,0,1,1.559,4.051V31.645A5.75,5.75,0,0,1,103.37,35.7c-1.039,1.123-3.107,1.436-4.592,1.436-1.465,0-3.528-.313-4.577-1.436a5.72,5.72,0,0,1-1.574-4.051Zm2.524,14.059a2.977,2.977,0,0,0,.832,2.124c.553.587,2.023.632,2.795.632s2.242-.045,2.8-.632a2.98,2.98,0,0,0,.831-2.124V17.586a2.983,2.983,0,0,0-.831-2.124c-.554-.587-2.024-.632-2.8-.632s-2.242.045-2.795.632a2.98,2.98,0,0,0-.832,2.124Z" transform="translate(-92.627 -12.099)"/></svg>