<svg xmlns="http://www.w3.org/2000/svg" width="97.713" height="25.698" viewBox="0 0 97.713 25.698"><defs><style>.a{fill:#fff;}</style></defs><path class="a" d="M2.322,0V-25.078H10.96v1.331H3.994v10.093H10v1.3H3.994V0ZM15.759,0V-25.078h1.672V0Zm7.864,0V-25.078h1.331L33.469-3.9V-25.078h1.486V0H33.624L25.109-21.208V0ZM39.785,0l5.263-25.078H47L52.293,0h-1.7l-1.3-6.935h-6.5L41.457,0Zm3.251-8.174h6.037L46.039-23.035ZM57.154,0V-25.078h1.331L67-3.9V-25.078h1.486V0H67.155L58.64-21.208V0ZM80.189.341A6.081,6.081,0,0,1,76.4-.681a5.18,5.18,0,0,1-1.811-2.74,13.662,13.662,0,0,1-.5-3.793V-17.865a12.944,12.944,0,0,1,.526-3.855,5.068,5.068,0,0,1,1.858-2.663,6.187,6.187,0,0,1,3.715-.975,5.918,5.918,0,0,1,3.437.867,4.7,4.7,0,0,1,1.765,2.461,11.922,11.922,0,0,1,.526,3.731v1.269h-1.61V-18.3a11.784,11.784,0,0,0-.341-3.05,3.484,3.484,0,0,0-1.238-1.935,4.128,4.128,0,0,0-2.539-.681,4.424,4.424,0,0,0-2.756.743,3.681,3.681,0,0,0-1.3,2.074,12.568,12.568,0,0,0-.341,3.1V-6.966a11.8,11.8,0,0,0,.372,3.174A3.673,3.673,0,0,0,77.5-1.765a4.447,4.447,0,0,0,2.694.712,4.052,4.052,0,0,0,2.57-.712,3.574,3.574,0,0,0,1.223-2,12.256,12.256,0,0,0,.325-2.988V-8.267h1.61v1.238a13.413,13.413,0,0,1-.5,3.808A4.946,4.946,0,0,1,83.688-.6,5.666,5.666,0,0,1,80.189.341ZM91.273,0V-25.078h8.669v1.362H92.976v10.062H98.7v1.3H92.976V-1.331h7.059V0Z" transform="translate(-2.322 25.357)"/></svg>