<svg xmlns="http://www.w3.org/2000/svg" width="58.813" height="25.473" viewBox="0 0 58.813 25.473"><defs><style>.a{fill:#fcfcfc;}</style></defs><path class="a" d="M998.956,174.273a1.67,1.67,0,0,1,1.668,1.668v21.136a1.67,1.67,0,0,1-1.668,1.669H944.48a1.671,1.671,0,0,1-1.669-1.669V175.941a1.671,1.671,0,0,1,1.669-1.668Zm0-.5H944.48a2.175,2.175,0,0,0-2.169,2.168v21.136a2.175,2.175,0,0,0,2.169,2.169h54.476a2.174,2.174,0,0,0,2.168-2.169V175.941a2.174,2.174,0,0,0-2.168-2.168" transform="translate(-942.311 -173.773)"/></svg>