<svg xmlns="http://www.w3.org/2000/svg" width="48.102" height="46.235" viewBox="0 0 48.102 46.235"><defs><style>.a{fill:none;stroke:#6300ff;stroke-miterlimit:10;stroke-width:0.97px;}.b{fill:#6300ff;}</style></defs><g transform="translate(-529.057 -370.075)"><path class="a" d="M554.042,415.825h-1.868a22.633,22.633,0,0,1,0-45.265h1.868a22.633,22.633,0,0,1,0,45.265Z"/><path class="b" d="M559.57,380.332a5.677,5.677,0,0,1,.648.486c1.537,1.523,3.064,3.057,4.595,4.586a2.3,2.3,0,0,0,.189.157c-.439.435-.849.844-1.273,1.266-1.126-1.128-2.271-2.276-3.459-3.465v21.763h-1.775v-21.69l-3.422,3.422c-.454-.46-.86-.869-1.282-1.294.005-.006.048-.06.1-.11q2.38-2.381,4.765-4.758a3.493,3.493,0,0,1,.53-.363Z"/><path class="b" d="M547.843,380.332c0,.106.006.211.006.315v21.371l3.407-3.414,1.3,1.3c-.023.024-.073.083-.128.139l-4.711,4.711a.922.922,0,0,1-1.5,0q-2.358-2.355-4.712-4.709a1.393,1.393,0,0,0-.141-.116l1.258-1.261c1.107,1.109,2.255,2.257,3.4,3.4.02-.009.041-.018.062-.029V380.671c0-.114.008-.226.011-.339Z"/></g></svg>