<svg xmlns="http://www.w3.org/2000/svg" width="106.445" height="21.39" viewBox="0 0 106.445 21.39"><defs><style>.a{fill:#36cbfd;}.b{fill:#35cbfd;}</style></defs><g transform="translate(-1207.395 -297.787)"><path class="a" d="M1228.635,309.294c0,.848-.009,1.7,0,2.544a2.339,2.339,0,0,0,2.37,2.369,2.28,2.28,0,0,0,2.317-2.4c.005-1.555-.017-3.11.009-4.664.032-1.941,1.317-3.069,3.071-2.735a2.484,2.484,0,0,1,1.913,2.544c.016,1.6,0,3.2.012,4.8a2.28,2.28,0,0,0,2.268,2.448,2.346,2.346,0,0,0,2.433-2.454c.014-1.625,0-3.25.006-4.875a2.461,2.461,0,0,1,2.378-2.554,2.42,2.42,0,0,1,2.505,2.358,54.569,54.569,0,0,1-.059,5.93,6.857,6.857,0,0,1-4.248,5.884,6.927,6.927,0,0,1-7.223-.772.8.8,0,0,0-1.146,0,7.214,7.214,0,0,1-11.439-5.064,35.443,35.443,0,0,1-.012-6.206,2.358,2.358,0,0,1,2.471-2.128,2.423,2.423,0,0,1,2.353,2.353c.029.87.006,1.743.006,2.614h.013"/><path class="b" d="M1217.273,319.12a31.513,31.513,0,0,1-3.527-.123,7.72,7.72,0,0,1-6.348-7.412q-.006-5.3,0-10.6a2.544,2.544,0,0,1,2.548-2.638,2.606,2.606,0,0,1,2.659,2.551c.036,1.082.025,2.167,0,3.25-.011.438.136.556.565.552q3.287-.028,6.572,0a2.415,2.415,0,0,1,2.522,2.97,2.321,2.321,0,0,1-2.267,1.85c-2.237.012-4.475.02-6.712-.008-.522-.007-.652.134-.689.662-.188,2.759.951,3.915,3.677,3.727,1.266-.087,2.543-.023,3.815-.017a2.624,2.624,0,1,1,.011,5.234c-.872.005-1.743,0-2.823,0"/><path class="a" d="M1293.22,313.16c-1.225,0-2.45-.007-3.675.006-.215,0-.531-.141-.626.14a.744.744,0,0,0,.254.7,3.039,3.039,0,0,0,2.311.873c1.7.032,3.393,0,5.088.031a2.107,2.107,0,1,1,.029,4.213c-1.931,0-3.864.026-5.795-.007a7.592,7.592,0,0,1-7.106-9.436,6.658,6.658,0,0,1,6.351-5.274,9.62,9.62,0,0,1,6.112,1.216,6.384,6.384,0,0,1,3.09,4.9c.195,1.743-.6,2.626-2.358,2.645-1.225.014-2.45,0-3.675,0Zm-1.71-3.375c.633,0,1.266.01,1.9-.006.2-.005.475.121.573-.107a.65.65,0,0,0-.195-.641,1.9,1.9,0,0,0-.523-.456,3.739,3.739,0,0,0-3.32-.117,1.521,1.521,0,0,0-.891.754c-.135.322-.151.593.349.578.7-.021,1.406-.005,2.109-.005"/><path class="a" d="M1270.232,306.284c0-1.72-.018-3.44,0-5.16a2.649,2.649,0,0,1,3.567-2.619,2.7,2.7,0,0,1,1.709,2.6c.017,1.013.024,2.027-.005,3.039-.013.44.138.564.564.558,1.342-.019,2.687-.029,4.029.011a2.349,2.349,0,0,1,2.255,1.891,2.383,2.383,0,0,1-1.243,2.672,2.349,2.349,0,0,1-1.158.249c-1.272-.005-2.545.021-3.817-.011-.506-.012-.669.162-.628.648.035.422,0,.848.011,1.272a2.486,2.486,0,0,0,2.5,2.449c.8.016,1.6-.008,2.4.011a2.619,2.619,0,0,1,2.582,2.635,2.586,2.586,0,0,1-2.563,2.578,16.811,16.811,0,0,1-4.291-.207,7.783,7.783,0,0,1-5.92-7.74c-.013-1.625,0-3.251,0-4.877"/><path class="b" d="M1256.729,306.517q0-2.756,0-5.511a2.589,2.589,0,0,1,5.164-.328,32.158,32.158,0,0,1,.031,3.529c-.013.434.126.5.5.5,1.366-.015,2.733-.027,4.1.012a2.357,2.357,0,0,1,2.264,1.88,2.407,2.407,0,0,1-1.233,2.679,2.381,2.381,0,0,1-1.157.253c-1.3-.006-2.592.012-3.887-.008-.413-.006-.637.1-.573.55a.277.277,0,0,1,0,.071c-.211,2.752.835,3.963,3.693,3.752.4-.03.8-.009,1.2,0a2.635,2.635,0,0,1,2.6,2.689,2.572,2.572,0,0,1-2.6,2.529,15.689,15.689,0,0,1-4.833-.372,7.735,7.735,0,0,1-5.254-6.994c-.017-1.742,0-3.485,0-5.228Z"/><path class="a" d="M1300.64,313.952c.049-.9-.057-1.98.079-3.061a7.186,7.186,0,0,1,6.545-6.169c1.409-.071,2.824-.05,4.235-.015a2.407,2.407,0,0,1,2.341,2.43,2.366,2.366,0,0,1-2.435,2.39,29.806,29.806,0,0,0-3.805.074,2.255,2.255,0,0,0-2.073,2.414c-.006,1.482,0,2.965,0,4.448a2.451,2.451,0,1,1-4.885,0c0-.777,0-1.554,0-2.51"/><path class="b" d="M1254.915,311.786c0,1.576.007,3.152,0,4.729a2.61,2.61,0,0,1-5.22.034q-.034-4.763,0-9.527a2.614,2.614,0,1,1,5.224.035c0,1.577,0,3.153,0,4.729"/><path class="a" d="M1252.269,303a2.549,2.549,0,0,1-2.572-2.6,2.61,2.61,0,1,1,5.218.081,2.519,2.519,0,0,1-2.646,2.516"/></g></svg>