<svg xmlns="http://www.w3.org/2000/svg" width="98.003" height="22.573" viewBox="0 0 98.003 22.573"><defs><style>.a{fill:#f9f9f9;}</style></defs><g transform="translate(-348.301 -301.915)"><path class="a" d="M431.3,308.108c2.951-2.378,5.571-2.248,7.361.5a9.192,9.192,0,0,1,.811-1.022,4.663,4.663,0,0,1,5.022-.73,3.1,3.1,0,0,1,1.784,2.865c.047,3.006.006,6.013.025,9.019,0,.482-.149.668-.623.608a2,2,0,0,0-.546,0c-.734.112-.99-.146-.973-.926.052-2.4.022-4.8.018-7.2,0-1.927-.61-2.78-2.034-2.882a2.831,2.831,0,0,0-3.135,2.73c-.128,2.423-.063,4.856-.1,7.284-.005.325.222.841-.253.94a3.435,3.435,0,0,1-1.8-.038c-.27-.093-.141-.494-.142-.757-.007-2.308,0-4.615,0-6.923,0-.243.006-.487-.006-.729-.073-1.514-.577-2.251-1.681-2.467a2.935,2.935,0,0,0-3.21,1.686,6.841,6.841,0,0,0-.4,2.684c-.016,1.913-.034,3.827.011,5.739.015.674-.158.965-.857.859a3.863,3.863,0,0,0-.819,0c-.383.024-.543-.12-.542-.522q.014-5.785,0-11.57c0-.394.153-.507.535-.535,1.247-.09,1.286-.073,1.563,1.385"/><path class="a" d="M402.284,307.98c.134-1.206.634-1.515,1.776-1.25.344.08.337.285.335.53-.043,4.1.169,8.2-.1,12.29-.229,3.421-2.634,5.237-6.224,4.9a6.374,6.374,0,0,1-2.852-.848,3.413,3.413,0,0,1-1.578-2.726c-.044-.4.053-.557.491-.458.781.176,1.772-.04,1.952,1.158a.679.679,0,0,0,.276.352,4,4,0,0,0,3.73.516,2.6,2.6,0,0,0,1.947-2.289c.1-.707.117-1.427.188-2.372a5.055,5.055,0,0,1-8.516-1.992,8.05,8.05,0,0,1,.236-6.293,5,5,0,0,1,8.043-1.711,3.1,3.1,0,0,0,.3.2m.053,4.909a5.5,5.5,0,0,0-.509-2.648,3.161,3.161,0,0,0-3.1-1.959,3.05,3.05,0,0,0-2.861,2.164,6.937,6.937,0,0,0,.06,5.063,3.028,3.028,0,0,0,2.955,2.023,3.186,3.186,0,0,0,3.032-2.065,6.351,6.351,0,0,0,.427-2.578"/><path class="a" d="M423.938,318.012a2.468,2.468,0,0,0-1.008.568,6.556,6.556,0,0,1-5.235.858,3.391,3.391,0,0,1-2.724-2.935,3.6,3.6,0,0,1,1.962-3.693,12.449,12.449,0,0,1,3.884-.872c.747-.131,1.489-.287,2.238-.4.57-.087.724-.394.694-.942a2.058,2.058,0,0,0-1.694-2.168c-2.1-.6-3.476-.046-4.478,1.879-.235.452-.528.3-.83.262-1.568-.206-1.652-.391-.881-1.809a4.16,4.16,0,0,1,2.791-2.02,9.347,9.347,0,0,1,4.509-.068,3.145,3.145,0,0,1,2.739,3.344c.064,2.334.073,4.669.129,7a3.41,3.41,0,0,0,.218,1.335c.393.841.173.98-.709,1.032-1.082.062-1.563-.352-1.605-1.374m-.2-3.94c-.3-.15.38-1-.367-.823-1.594.378-3.243.485-4.8.982a1.7,1.7,0,0,0-1.266,1.788,1.787,1.787,0,0,0,1.36,1.73,3.811,3.811,0,0,0,5.076-3.677"/><path class="a" d="M386.7,313.608c-1.306,0-2.613.026-3.918-.012-.557-.016-.747.113-.675.706a3.752,3.752,0,0,0,4.009,3.514,2.689,2.689,0,0,0,2.453-1.481c.439-.976,1.031-1.1,1.965-.943.735.12.887.3.585,1.008-1,2.346-3.189,3.489-6.237,3.186a5.447,5.447,0,0,1-4.93-4.52,9.726,9.726,0,0,1,.022-3.981,5.78,5.78,0,0,1,11.431.7c.2,1.827.2,1.827-1.607,1.827h-3.1m-1.07-1.8c.94,0,1.882-.035,2.82.012.624.031.7-.2.6-.747a3.316,3.316,0,0,0-3.3-2.818,3.506,3.506,0,0,0-3.492,2.864c-.1.509-.014.72.553.7.939-.036,1.881-.01,2.821-.01"/><path class="a" d="M367.894,313.608c-1.367,0-2.734.018-4.1-.009-.5-.01-.7.091-.647.65a3.956,3.956,0,0,0,2.875,3.5,3.245,3.245,0,0,0,3.934-2c.406-.844.993-.35,1.475-.329,1.083.046,1.1.126.678,1.09-.956,2.181-2.956,3.26-5.756,3.107a5.393,5.393,0,0,1-5.166-3.887,9.028,9.028,0,0,1,.047-5.386,5.769,5.769,0,0,1,11.214,1.387c.211,1.875.211,1.875-1.636,1.875h-2.917m-1.323-1.8c.938,0,1.88-.052,2.813.016.787.057.838-.273.69-.9a3.326,3.326,0,0,0-3.5-2.669,3.547,3.547,0,0,0-3.314,3.071c-.066.5.176.482.5.481q1.407,0,2.814,0"/><path class="a" d="M354.082,311.657c0-2.277-.018-4.554.012-6.83.008-.59-.155-.79-.762-.772-1.426.041-2.854-.008-4.281.024-.532.012-.812-.1-.739-.694a5.122,5.122,0,0,0,0-.91c-.022-.38.113-.536.519-.535q6.423.016,12.846,0c.393,0,.56.138.531.53a2.949,2.949,0,0,0,0,.637c.107.73-.135,1.02-.927.977-1.272-.068-2.555.053-3.824-.041-.93-.069-1.068.271-1.06,1.108.043,4.4,0,8.8.038,13.2.007.771-.139,1.151-.977.994a2.055,2.055,0,0,0-.636,0c-.614.083-.767-.182-.759-.773.032-2.306.013-4.614.013-6.921"/><path class="a" d="M409.587,308.23c1.614-1.85,2.532-2.142,4.152-1.469.534.222.829.467.482,1.068a3.578,3.578,0,0,0-.288.764c-.115.38-.257.512-.715.366-1.826-.586-2.8-.009-3.26,1.876a20.5,20.5,0,0,0-.241,4.623c-.014,1.062-.032,2.126.009,3.187.021.561-.152.732-.718.715-1.78-.057-1.452.184-1.461-1.423-.019-3.4,0-6.8-.008-10.2,0-.554-.119-1.125.787-1.02.635.074,1.421-.169,1.205.95a2.365,2.365,0,0,0,.056.562"/><path class="a" d="M377.206,310.655c0,2.612-.024,5.224.015,7.835.01.675-.162.971-.858.861a1.81,1.81,0,0,0-.545,0c-.629.094-.826-.139-.817-.79.035-2.854.015-5.709.015-8.564,0-2.4.024-4.8-.016-7.2-.01-.658.125-.986.839-.859a1.325,1.325,0,0,0,.453,0c.8-.139.94.248.929.968-.041,2.581-.015,5.163-.015,7.744"/></g></svg>